<?xml version="1.0" standalone="no"?>
<!DOCTYPE svg PUBLIC "-//W3C//DTD SVG 20010904//EN"
 "http://www.w3.org/TR/2001/REC-SVG-20010904/DTD/svg10.dtd">
<svg version="1.0" xmlns="http://www.w3.org/2000/svg"
 width="173.000000pt" height="164.000000pt" viewBox="0 0 173.000000 164.000000"
 preserveAspectRatio="xMidYMid meet">

<g transform="translate(0.000000,164.000000) scale(0.100000,-0.100000)"
fill="#000000" stroke="none">
<path d="M691 1395 c-148 -35 -244 -89 -343 -192 -103 -109 -167 -290 -153
-433 16 -153 76 -281 185 -391 83 -84 174 -136 290 -165 94 -24 340 -15 424
15 191 68 315 192 384 383 22 62 26 89 26 183 0 126 -16 191 -72 300 -44 84
-152 196 -233 242 -144 81 -325 102 -508 58z m194 -25 c150 -21 307 -128 389
-264 62 -103 81 -175 80 -306 0 -101 -3 -124 -28 -190 -147 -387 -602 -506
-896 -233 -77 71 -123 142 -156 241 -24 71 -26 87 -21 197 6 146 27 215 101
324 65 95 146 161 240 196 115 43 177 51 291 35z m183 1 c25 -15 -11 -20 -43
-6 l-30 13 30 1 c17 0 36 -3 43 -8z m96 -40 c10 -16 -37 -20 -58 -5 -19 13
-19 14 16 14 20 0 39 -4 42 -9z m64 -37 c12 -8 22 -19 22 -25 0 -15 -49 -10
-77 8 -23 16 -24 17 -7 24 29 11 38 10 62 -7z m87 -74 c21 -23 20 -25 -16 -33
-20 -5 -32 0 -54 23 l-29 30 41 0 c27 0 46 -6 58 -20z m60 -72 c14 -21 14 -23
-2 -30 -36 -14 -60 -8 -71 16 -10 22 -8 25 11 29 41 8 46 7 62 -15z m45 -78
c15 -36 15 -36 -27 -45 -30 -6 -33 -4 -46 27 -13 31 -12 33 7 40 41 12 54 8
66 -22z m34 -86 c10 -27 7 -32 -30 -39 -42 -7 -40 -8 -49 28 -7 26 -6 27 33
27 27 0 42 -5 46 -16z m18 -94 c4 -29 3 -30 -33 -30 -24 0 -39 5 -43 16 -12
32 -6 43 27 46 42 5 44 3 49 -32z m8 -90 c0 -28 -2 -30 -40 -30 -38 0 -40 2
-40 30 0 28 2 30 40 30 38 0 40 -2 40 -30z m-12 -85 c-3 -27 -7 -30 -40 -33
-32 -3 -38 0 -38 17 0 37 10 47 46 47 33 -1 35 -3 32 -31z m-14 -77 c-9 -29
-22 -38 -56 -38 -28 0 -34 12 -22 44 4 11 19 16 46 16 36 0 39 -2 32 -22z
m-40 -99 c-12 -24 -21 -29 -49 -29 -40 0 -40 1 -21 39 13 23 19 27 50 23 l35
-4 -15 -29z m-54 -89 c-17 -24 -29 -30 -56 -30 l-35 0 18 30 c14 25 24 30 56
30 l38 0 -21 -30z m-81 -86 c-15 -17 -34 -24 -58 -24 l-35 0 27 28 c21 22 34
28 58 24 l30 -4 -22 -24z m-90 -70 c-26 -15 -69 -19 -69 -6 0 4 12 15 27 24
21 12 32 14 47 6 19 -10 18 -11 -5 -24z m-84 -34 c4 -6 -5 -10 -20 -10 -15 0
-24 4 -20 10 3 6 12 10 20 10 8 0 17 -4 20 -10z m-80 -30 c-11 -5 -29 -9 -40
-9 l-20 0 20 9 c11 5 29 9 40 9 l20 0 -20 -9z"/>
<path d="M651 1295 c-72 -22 -191 -88 -191 -106 0 -3 -18 -25 -40 -47 -52 -56
-106 -171 -122 -260 -22 -129 18 -277 107 -392 51 -67 104 -107 202 -152 58
-28 80 -32 172 -36 95 -4 114 -2 179 21 174 60 290 189 337 372 59 231 -72
493 -291 585 -67 28 -94 34 -174 37 -80 3 -108 -1 -179 -22z m270 -13 c253
-70 403 -323 348 -584 -69 -326 -454 -490 -724 -307 -59 40 -139 129 -169 187
-30 59 -56 171 -56 240 0 63 25 162 54 220 42 82 82 128 153 175 125 83 259
106 394 69z"/>
<path d="M680 1188 c-12 -5 -20 -16 -20 -31 0 -22 -6 -25 -52 -30 -28 -4 -55
-10 -60 -15 -5 -5 -8 -27 -6 -48 3 -37 5 -39 38 -42 l35 -3 2 -204 1 -205 -26
0 c-65 0 -72 -7 -69 -69 3 -54 4 -56 33 -59 81 -7 93 -12 96 -40 3 -26 5 -27
63 -27 58 0 60 1 63 28 5 40 42 38 42 -2 0 -35 15 -42 80 -34 49 6 50 7 50 39
0 30 4 34 38 43 115 32 166 118 131 222 -17 48 -37 69 -92 93 l-49 22 34 18
c51 27 78 73 78 130 0 74 -32 120 -100 141 -30 9 -40 22 -40 53 0 22 -3 23
-57 20 -55 -3 -58 -4 -63 -32 -7 -42 -28 -44 -32 -4 -3 31 -5 33 -50 38 -26 3
-56 2 -68 -2z m78 -55 c3 -32 4 -33 52 -33 48 0 49 1 52 33 2 27 8 33 31 35
23 3 27 0 27 -22 0 -27 23 -56 46 -56 8 0 26 -11 39 -25 47 -46 22 -154 -48
-208 -21 -15 -37 -33 -36 -40 0 -7 27 -25 59 -40 137 -65 130 -192 -14 -246
-47 -17 -51 -21 -56 -57 -4 -33 -9 -39 -32 -42 -24 -3 -27 0 -30 35 -3 37 -4
38 -45 41 -39 3 -43 1 -49 -25 -3 -15 -7 -33 -9 -39 -2 -6 -16 -9 -34 -6 -25
3 -30 9 -33 36 -3 30 -5 31 -58 36 -54 5 -55 6 -58 38 -3 32 -3 32 42 32 l46
0 0 193 c0 105 -3 209 -6 230 -6 33 -10 37 -35 37 -26 0 -29 4 -29 30 0 30 1
30 54 30 54 0 54 0 60 36 6 31 10 35 34 32 22 -2 28 -9 30 -35z"/>
<path d="M745 1038 c-3 -7 -6 -38 -8 -68 l-2 -55 78 -3 c71 -3 79 -1 102 22
38 38 33 81 -12 105 -30 15 -152 15 -158 -1z m129 -34 c9 -8 16 -19 16 -23 0
-17 -43 -51 -65 -51 -23 0 -25 4 -25 45 0 43 1 45 29 45 16 0 37 -7 45 -16z"/>
<path d="M798 742 c-42 -3 -48 -6 -48 -26 0 -13 -3 -43 -6 -68 l-6 -45 45 -6
c123 -17 186 16 173 88 -9 48 -56 64 -158 57z m102 -42 c24 -24 24 -30 7 -55
-10 -12 -28 -18 -58 -19 l-44 -1 -3 48 -3 47 40 0 c28 0 48 -7 61 -20z"/>
</g>
</svg>
