<?xml version="1.0" standalone="no"?>
<!DOCTYPE svg PUBLIC "-//W3C//DTD SVG 20010904//EN"
 "http://www.w3.org/TR/2001/REC-SVG-20010904/DTD/svg10.dtd">
<svg version="1.0" xmlns="http://www.w3.org/2000/svg"
 width="401.000000pt" height="354.000000pt" viewBox="0 0 401.000000 354.000000"
 preserveAspectRatio="xMidYMid meet">

<g transform="translate(0.000000,354.000000) scale(0.100000,-0.100000)"
fill="#000000" stroke="none">
<path d="M0 1975 c0 -861 4 -1565 9 -1565 11 0 136 94 181 136 19 18 54 49 78
69 23 21 42 43 42 50 0 7 7 19 16 26 25 20 73 126 63 136 -14 14 24 44 63 52
19 4 33 13 33 22 0 16 44 90 59 101 7 5 7 11 -2 20 -21 21 -13 53 19 82 l31
28 42 -18 c22 -10 46 -23 51 -29 6 -7 29 -22 53 -34 70 -35 219 -140 267 -187
25 -24 45 -52 45 -63 0 -32 13 -32 63 0 26 16 50 28 55 27 4 -2 25 12 47 30
44 36 33 33 -68 -18 -58 -30 -69 -32 -77 -20 -10 15 -14 189 -10 385 2 117
-10 184 -37 206 -14 13 -15 11 -9 -21 4 -19 11 -109 16 -200 5 -91 12 -185 15
-209 3 -24 1 -49 -5 -56 -7 -9 -7 -21 0 -39 15 -40 -4 -33 -73 27 -34 30 -80
64 -101 77 -22 13 -65 45 -96 71 -31 25 -65 49 -75 53 -11 3 -38 21 -60 40
-36 31 -39 37 -30 63 23 64 127 26 251 -90 45 -43 84 -77 88 -77 8 0 -133 138
-179 175 -84 68 -95 82 -95 122 0 22 5 44 12 51 6 6 13 20 14 29 6 42 23 95
38 118 9 13 16 31 16 39 0 7 14 28 30 46 25 27 36 31 63 27 21 -3 41 2 58 14
128 90 299 81 379 -21 26 -33 37 -39 84 -44 71 -9 99 -45 109 -136 3 -23 4
-16 5 22 1 33 7 60 15 65 6 4 50 9 97 10 47 2 111 4 142 5 44 1 62 -3 78 -17
11 -10 22 -16 25 -13 8 7 -20 81 -47 124 -51 80 -118 212 -118 229 0 10 18 -9
40 -44 22 -33 60 -75 84 -92 31 -22 51 -46 64 -80 17 -39 25 -48 49 -51 29 -3
29 -4 16 -70 -7 -35 30 -89 42 -60 6 16 8 15 24 -4 15 -19 20 -20 36 -8 10 7
23 15 29 18 7 3 6 8 -4 16 -11 9 -12 13 -2 17 6 2 12 13 12 24 0 10 -6 19 -12
19 -16 1 33 39 49 40 7 0 10 -7 6 -17 -5 -11 -3 -14 6 -8 10 5 11 2 6 -14 -4
-13 -2 -21 5 -21 7 0 10 -7 7 -14 -4 -10 -1 -13 7 -10 7 3 20 23 29 45 15 37
39 51 52 29 3 -5 18 -7 33 -4 32 6 58 -16 48 -41 -3 -8 -2 -15 3 -15 5 0 11 9
14 19 4 15 -11 28 -65 62 -109 69 -141 96 -122 103 9 3 26 6 39 6 61 0 128 24
183 64 53 39 122 124 122 149 0 6 -14 -10 -30 -35 -38 -57 -60 -68 -60 -30 0
15 -7 37 -15 49 -8 12 -18 42 -21 68 -8 53 -14 53 115 -9 73 -35 104 -40 65
-12 -17 13 -18 15 -2 21 9 4 22 3 29 -1 7 -4 10 -2 7 7 -6 17 -40 12 -51 -6
-6 -11 -19 -8 -65 14 -31 16 -81 37 -111 47 -29 10 -56 24 -58 31 -3 7 18 35
46 62 28 27 51 52 51 55 0 15 -32 4 -37 -12 -2 -10 -20 -24 -39 -31 -19 -7
-34 -19 -34 -27 0 -20 -5 -18 -42 20 -18 18 -39 31 -46 29 -7 -3 -19 1 -27 7
-11 9 -15 9 -15 1 0 -6 -7 -11 -15 -11 -8 0 -30 -7 -49 -17 -42 -19 -61 -9
-74 41 l-9 31 -7 -31 c-4 -17 -2 -43 4 -58 10 -28 12 -28 78 -24 52 3 75 9 97
26 l30 23 7 -26 c9 -37 27 -55 45 -48 23 9 12 -17 -14 -34 -21 -14 -22 -13
-29 22 -8 44 -30 41 -26 -4 2 -27 -1 -31 -23 -31 -16 0 -34 -12 -52 -35 -16
-20 -37 -35 -49 -35 -22 0 -44 -18 -44 -36 0 -7 16 -11 43 -11 23 1 60 -2 82
-7 28 -5 45 -3 58 6 15 11 11 13 -34 13 -29 0 -54 5 -55 10 -2 6 20 25 49 44
29 19 64 42 79 53 15 10 31 18 36 18 18 0 42 -37 42 -64 0 -15 11 -44 25 -64
44 -64 30 -132 -30 -158 -77 -32 -139 -18 -386 87 -142 61 -149 65 -238 169
-35 41 -93 102 -128 135 -72 69 -81 99 -33 110 24 5 38 1 63 -17 28 -21 39
-23 95 -17 35 3 68 12 75 19 10 10 8 11 -8 7 -56 -16 -75 -18 -75 -9 0 9 37
23 65 26 23 2 55 28 55 44 0 10 6 24 13 32 6 8 -1 3 -18 -12 -38 -34 -95 -58
-137 -57 -31 0 -32 1 -10 11 12 6 22 15 22 20 0 5 -13 2 -30 -7 -32 -17 -41
-10 -13 10 14 11 13 13 -12 19 l-28 7 39 40 c22 22 61 48 91 59 55 21 113 26
113 11 0 -4 14 -12 32 -17 17 -5 33 -15 36 -22 2 -7 -2 -10 -10 -7 -8 3 -25 1
-39 -5 -22 -9 -21 -10 9 -4 30 5 32 4 33 -23 1 -25 2 -24 11 11 10 35 9 41
-13 57 -21 16 -21 19 -6 19 21 0 59 -18 69 -34 5 -7 8 -5 8 6 0 25 -28 48 -60
48 -16 0 -30 5 -32 11 -2 7 -39 12 -95 13 -74 1 -94 -2 -110 -16 -11 -10 -24
-18 -29 -18 -12 0 -60 -45 -79 -74 -15 -22 -18 -22 -63 -10 -72 19 -102 32
-108 49 -4 8 -12 15 -20 15 -8 0 -14 5 -14 10 0 14 -117 130 -131 130 -18 0
-68 154 -61 184 2 5 -5 6 -14 2 -15 -6 -15 -4 -3 10 8 10 13 19 12 21 -8 10 0
24 18 34 21 11 22 10 16 -22 -6 -33 -6 -33 7 -10 20 35 8 58 -26 52 -13 -2 -9
9 12 31 17 19 20 19 26 5 3 -10 12 -17 20 -17 20 0 18 45 -3 61 -15 12 -16 12
-10 -3 7 -20 -12 -23 -48 -8 -21 8 -22 8 32 25 14 5 14 7 -3 21 -18 15 -18 15
6 10 14 -3 29 -6 34 -6 4 0 6 -6 3 -13 -4 -10 3 -12 26 -9 28 4 29 6 12 18
-18 13 -17 14 8 14 30 0 32 3 16 32 -10 19 -9 20 10 15 15 -4 21 0 22 11 0 11
4 9 10 -7 7 -17 13 -21 20 -14 8 8 8 17 0 31 -20 38 -32 113 -20 128 8 10 7
21 -4 44 -16 32 -5 43 12 13 7 -13 10 -14 11 -4 0 8 -8 20 -17 28 -17 13 -17
14 2 11 15 -3 20 -11 20 -35 0 -17 3 -29 7 -27 7 5 23 -15 23 -30 0 -5 7 -11
15 -13 13 -4 13 -3 0 6 -13 10 -13 11 0 11 19 -1 60 -34 60 -49 0 -16 -22 -14
-47 4 -16 11 -22 12 -25 3 -3 -9 -12 -8 -31 5 -25 16 -26 16 -20 0 4 -10 15
-29 25 -42 15 -19 16 -26 6 -33 -10 -6 -9 -11 5 -19 11 -6 17 -22 17 -44 0
-19 4 -35 8 -35 11 0 3 61 -10 77 -10 13 -3 33 12 33 4 0 11 -12 16 -27 5 -21
8 -24 11 -10 4 14 23 25 23 12 0 -12 -24 -55 -31 -55 -5 0 -6 -7 -2 -15 6 -17
20 3 41 61 l11 29 -2 -34 c-1 -21 3 -36 12 -39 9 -3 11 1 6 17 -4 12 -2 21 4
21 18 0 12 24 -9 38 -16 9 -18 17 -11 30 13 23 -14 66 -56 89 -37 19 -44 34
-13 26 11 -3 36 -23 55 -44 40 -45 45 -47 45 -18 0 29 17 15 25 -21 4 -17 10
-28 15 -25 4 3 6 14 3 25 -3 11 -2 28 2 37 6 17 7 17 20 -1 8 -10 19 -15 25
-11 9 5 10 0 6 -16 -3 -13 -3 -18 0 -11 5 10 9 10 20 1 11 -9 14 -9 14 1 0 7
6 10 14 7 8 -3 16 2 19 14 6 21 -8 27 -16 7 -3 -7 -6 -3 -6 9 -1 12 -4 30 -8
40 -6 16 -5 16 10 4 25 -20 21 3 -5 25 -12 10 -18 13 -14 7 4 -7 3 -13 -3 -13
-6 0 -6 -11 0 -32 11 -41 11 -48 -1 -48 -5 0 -10 11 -10 24 0 13 -10 36 -22
51 -20 26 -24 27 -87 22 -53 -4 -70 -2 -85 11 -18 16 -18 16 -7 -5 6 -12 7
-24 2 -27 -12 -8 -21 4 -21 27 0 11 -7 29 -17 39 -15 17 -15 18 5 18 11 0 22
-6 25 -12 3 -10 7 -10 17 -1 10 9 17 7 32 -13 18 -22 70 -35 67 -16 -7 41 12
69 25 36 3 -8 2 -13 -3 -10 -5 3 -12 -1 -15 -9 -4 -12 1 -15 27 -13 18 1 38
-1 45 -6 7 -4 14 2 18 19 3 14 10 25 16 25 5 0 6 6 2 13 -4 6 1 5 11 -4 12
-12 28 -15 56 -12 27 4 39 2 39 -7 0 -6 6 -10 13 -7 6 2 33 -6 59 -20 l48 -23
-3 21 c-3 30 19 35 34 7 11 -21 11 -22 -4 -9 -11 9 -17 10 -17 2 0 -23 41 -50
105 -70 73 -23 119 -56 96 -70 -8 -6 -19 -3 -30 8 -28 28 -198 104 -212 95 -5
-3 -17 0 -25 7 -9 7 -29 12 -46 11 -17 -1 -42 6 -58 18 -33 24 -56 26 -64 5
-4 -10 1 -15 15 -15 11 0 17 -4 14 -10 -3 -5 3 -10 14 -10 13 0 21 -7 21 -16
0 -10 -6 -14 -15 -10 -23 8 -18 0 10 -18 24 -16 25 -16 22 6 -2 20 2 22 48 19
28 -1 88 -18 136 -37 48 -19 91 -34 96 -34 5 0 26 -16 47 -35 42 -38 60 -47
31 -15 -10 11 -13 20 -7 20 15 0 65 -67 59 -78 -3 -4 10 -30 28 -57 19 -28 34
-55 35 -61 0 -6 13 -29 28 -50 71 -99 191 -363 230 -509 37 -135 52 -207 52
-245 0 -36 15 -46 36 -25 14 14 15 17 2 28 -19 15 -31 47 -18 47 6 0 10 8 10
18 0 9 12 35 25 57 14 22 25 51 24 65 l-1 25 -8 -27 c-13 -42 -21 -52 -31 -37
-11 18 -11 32 0 25 5 -3 12 1 15 10 8 21 8 21 -14 27 -24 6 -26 44 -5 130 13
56 13 58 -4 43 -17 -15 -18 -14 -19 19 -1 24 3 35 13 35 7 0 19 16 26 35 7 19
19 37 26 39 18 7 17 -55 -2 -80 -17 -22 -19 -58 -5 -85 8 -14 6 -25 -6 -44
-15 -23 -15 -25 0 -31 9 -3 23 -31 32 -61 14 -49 14 -56 0 -78 -21 -33 -20
-38 6 -23 37 22 48 35 48 62 0 19 -5 26 -20 26 -23 0 -27 18 -6 26 11 4 10 17
-6 72 -22 79 -19 127 17 233 30 87 31 108 4 57 -22 -42 -34 -50 -24 -15 5 19
3 18 -12 -5 -20 -32 -39 -38 -23 -9 15 29 12 37 -6 15 -15 -18 -15 -17 -10 16
4 19 18 51 31 70 14 20 25 40 25 44 0 4 11 22 25 40 31 41 34 72 5 56 -11 -6
-31 -8 -45 -4 -14 3 -25 2 -25 -4 0 -9 -41 -25 -48 -18 -8 8 84 66 105 66 13
0 36 -12 50 -27 l27 -26 -22 -15 c-25 -16 -28 -45 -9 -82 14 -27 12 -50 -5
-50 -6 0 -8 7 -5 14 4 10 1 13 -8 10 -11 -5 -13 3 -9 33 4 33 3 35 -6 14 -11
-26 -4 -81 10 -81 21 0 17 -51 -10 -128 -31 -88 -37 -151 -20 -214 14 -47 23
-53 57 -32 18 10 22 11 11 1 -32 -26 -17 -50 37 -62 29 -6 29 -6 11 9 -13 10
-15 16 -7 16 8 0 20 8 27 18 9 11 13 13 14 4 0 -7 7 -20 15 -28 18 -18 20 -60
4 -70 -6 -3 -15 0 -20 7 -5 8 -9 10 -9 5 0 -5 -7 -3 -16 5 -13 11 -19 8 -40
-18 -16 -21 -39 -35 -72 -43 -46 -12 -48 -14 -44 -46 3 -26 0 -34 -11 -34 -9
0 -19 -5 -22 -10 -5 -7 9 -9 39 -5 37 5 46 4 46 -9 0 -8 -7 -19 -17 -24 -9 -6
-14 -16 -10 -25 3 -9 1 -19 -5 -23 -17 -11 240 -72 349 -83 91 -8 107 -7 152
10 28 10 51 15 51 10 0 -6 -4 -13 -10 -16 -6 -3 -10 -15 -10 -25 0 -10 -10
-31 -23 -46 -20 -23 -26 -25 -45 -15 -20 10 -23 9 -31 -13 -6 -13 -15 -27 -21
-31 -7 -5 -3 -18 14 -40 15 -19 26 -42 26 -52 0 -10 -27 -47 -60 -83 -40 -43
-57 -67 -50 -74 13 -13 100 83 93 101 -9 22 12 14 40 -15 l27 -28 -50 -54
c-48 -52 -57 -80 -26 -80 8 0 26 14 41 31 19 24 29 29 37 21 9 -9 6 -18 -10
-35 -12 -13 -20 -26 -17 -28 2 -3 -7 -18 -20 -33 -14 -16 -25 -34 -25 -41 0
-6 -64 -75 -143 -152 -120 -120 -139 -143 -122 -148 19 -5 19 -6 2 -19 -12 -9
-14 -16 -8 -21 6 -3 11 -1 11 4 0 17 30 13 56 -8 14 -11 24 -22 22 -25 -2 -3
13 -22 33 -43 20 -21 62 -73 94 -116 31 -43 63 -81 72 -84 8 -3 25 -1 39 5 13
7 24 8 24 4 0 -12 100 -117 110 -115 13 4 105 -116 160 -207 88 -146 137 -364
112 -497 l-9 -53 100 0 c76 0 98 3 89 12 -7 7 -8 17 -1 30 7 13 6 18 -2 18 -7
0 -5 10 6 27 14 21 15 25 2 20 -12 -4 -14 1 -12 29 2 18 0 36 -4 38 -4 3 -8
22 -9 42 -2 49 -16 63 -40 41 -10 -9 -26 -17 -35 -17 -19 0 -24 30 -4 30 6 0
-5 10 -25 22 -21 12 -38 29 -38 37 0 8 -13 35 -29 60 -16 25 -47 82 -68 126
-21 44 -40 82 -43 85 -14 14 -31 62 -44 125 -8 39 -15 63 -16 55 -1 -10 -4 -9
-9 5 -5 11 -4 28 1 39 7 13 6 21 -2 26 -8 5 -9 10 -2 14 6 3 11 14 10 24 0 9
2 27 5 39 4 15 2 20 -8 17 -7 -3 -16 -1 -19 4 -3 5 4 9 16 8 21 -1 24 -8 30
-71 2 -16 9 -33 17 -36 7 -3 29 -41 48 -85 19 -43 31 -65 28 -49 -4 17 -8 44
-9 60 -1 17 -11 45 -20 64 -41 78 33 59 117 -32 45 -47 57 -56 52 -37 -10 38
-37 72 -86 107 -60 43 -158 135 -159 149 0 13 47 7 56 -7 12 -20 24 -7 18 19
-8 33 -30 52 -60 52 -35 0 -129 88 -164 152 -33 64 -38 88 -15 88 8 0 15 4 15
9 0 12 82 24 157 24 35 0 60 4 57 8 -3 5 -35 9 -72 10 -55 0 -63 2 -42 10 14
6 46 9 73 7 26 -2 47 -2 47 -1 0 2 -25 19 -55 39 -30 20 -55 40 -55 43 0 3 7
15 15 25 8 11 15 23 15 28 0 10 -53 -10 -61 -24 -8 -12 -59 18 -59 35 0 6 -18
27 -40 47 -45 40 -58 76 -37 104 14 19 17 17 91 -29 88 -56 94 -62 111 -112 7
-21 19 -39 26 -42 12 -4 12 -2 1 12 -8 9 -12 21 -10 27 2 6 24 -9 49 -34 44
-42 87 -71 94 -64 5 5 -73 116 -113 162 -39 44 -65 93 -57 106 4 6 -1 13 -10
16 -9 4 -22 21 -30 38 l-13 31 -1 -29 c-1 -28 -1 -29 -21 -11 -36 32 -31 10 5
-25 19 -19 35 -38 35 -44 0 -6 17 -28 38 -50 25 -26 31 -37 18 -32 -19 7 -19
6 -1 -14 10 -11 16 -22 13 -25 -2 -3 -35 26 -71 64 -37 38 -87 81 -111 95 -43
25 -44 25 -49 5 -5 -18 -8 -19 -26 -7 -12 7 -21 16 -21 21 0 4 5 5 10 2 6 -4
10 5 10 20 0 15 5 35 11 46 13 26 89 59 137 60 l37 1 -33 8 c-40 9 -43 12 -58
53 -6 17 -15 40 -19 50 -6 13 5 29 46 65 48 43 284 262 484 451 142 133 193
178 115 101 -41 -41 -117 -115 -168 -164 -50 -49 -92 -89 -92 -90 0 0 11 -2
25 -2 14 -1 25 2 25 8 0 5 -6 6 -12 2 -7 -4 9 16 37 45 27 28 51 51 54 51 3 0
-15 -20 -39 -45 -24 -25 -40 -45 -34 -45 16 0 97 87 91 97 -4 5 32 44 78 87
47 43 85 72 85 66 0 -6 5 -8 11 -4 8 5 8 8 0 13 -7 5 1 18 21 37 18 16 25 20
15 8 -39 -47 -13 -34 43 21 l60 59 0 393 0 393 -2005 0 -2005 0 0 -1565z
m1593 1404 c6 -4 6 -13 0 -24 -7 -12 -13 -14 -17 -6 -4 6 -2 11 5 11 10 0 10
3 1 12 -7 7 -12 19 -11 28 0 13 1 13 6 0 3 -8 10 -18 16 -21z m-93 11 c0 -5
-7 -7 -15 -4 -8 4 -15 8 -15 10 0 2 7 4 15 4 8 0 15 -4 15 -10z m-125 -10 c18
-8 18 -9 -5 -9 -14 -1 -36 -4 -50 -7 -24 -6 -25 -6 -5 9 22 18 31 19 60 7z
m-109 -57 c5 3 14 -1 21 -8 9 -10 2 -13 -39 -13 l-51 0 24 18 c15 12 26 15 30
8 4 -6 11 -8 15 -5z m-86 -53 c-14 -11 -19 -20 -12 -20 7 0 10 -5 7 -10 -4 -6
-11 -8 -16 -5 -5 4 -14 -6 -19 -21 -6 -15 -13 -24 -16 -21 -13 12 49 97 70 97
6 0 0 -9 -14 -20z m70 0 c0 -5 -5 -10 -11 -10 -5 0 -7 5 -4 10 3 6 8 10 11 10
2 0 4 -4 4 -10z m223 3 c-7 -2 -21 -2 -30 0 -10 3 -4 5 12 5 17 0 24 -2 18 -5z
m47 -13 c6 -11 9 -20 8 -20 -2 0 -11 9 -21 20 -9 11 -13 20 -7 20 5 0 14 -9
20 -20z m-50 -21 c0 -18 -2 -19 -15 -9 -8 7 -15 16 -15 21 0 5 7 9 15 9 9 0
15 -9 15 -21z m109 -8 c-6 -2 -16 2 -22 9 -9 10 -9 11 1 6 7 -4 12 -2 12 6 0
9 3 9 10 -2 6 -10 6 -16 -1 -19z m-305 -7 c-3 9 -2 16 4 16 14 0 22 -24 15
-49 -3 -12 1 -29 8 -38 12 -14 12 -16 -1 -11 -8 2 -17 13 -19 24 -4 26 -31 55
-44 47 -6 -3 -7 -1 -3 5 5 8 -2 12 -21 13 -24 0 -25 1 -8 8 14 6 29 2 47 -11
22 -15 27 -16 22 -4z m-47 -81 c-3 -10 -5 -4 -5 12 0 17 2 24 5 18 2 -7 2 -21
0 -30z m181 -1 c2 -7 -2 -10 -12 -6 -9 3 -16 11 -16 16 0 13 23 5 28 -10z
m-142 -27 c1 -14 -2 -23 -7 -20 -5 4 -9 18 -9 32 0 32 12 23 16 -12z m-70 10
c4 -8 11 -15 18 -15 9 0 56 -61 56 -73 0 -1 -10 -3 -22 -4 -24 -2 -44 11 -59
38 -8 15 -6 17 8 12 16 -6 16 -5 4 10 -7 9 -17 14 -22 11 -5 -3 -9 4 -9 15 0
24 18 28 26 6z m-46 -105 c0 -5 -12 -10 -27 -9 -25 0 -26 1 -8 9 27 12 35 12
35 0z m1398 -115 c6 -5 -31 -9 -63 -5 -11 1 -24 6 -30 12 -7 6 7 7 39 4 27 -3
52 -8 54 -11z m12 -34 c0 -15 -19 -23 -38 -16 -14 5 -14 7 -2 15 19 12 40 13
40 1z m1435 -121 c-3 -5 -20 -19 -38 -32 -18 -12 -26 -15 -20 -7 7 9 9 20 5
24 -4 5 -2 5 4 2 6 -4 20 0 30 8 23 17 27 18 19 5z m-2225 -409 c0 -5 -7 -12
-16 -15 -14 -5 -15 -4 -4 9 14 17 20 19 20 6z m-545 -41 c10 -11 24 -20 30
-20 7 0 34 -9 60 -21 l47 -21 -27 -28 c-22 -23 -25 -31 -16 -48 6 -11 16 -23
23 -25 9 -4 8 -6 -2 -6 -10 -1 -28 23 -46 57 -17 31 -41 62 -54 69 -38 19 -37
6 3 -34 49 -49 39 -56 -12 -8 -39 37 -58 76 -46 95 9 15 20 12 40 -10z m208
-198 c15 -2 27 -10 27 -18 0 -8 -6 -11 -15 -8 -11 5 -15 -1 -15 -19 0 -35 23
-51 65 -44 25 4 35 2 35 -8 0 -18 -26 -26 -53 -16 -33 13 -105 92 -89 98 10 4
8 9 -5 20 -17 14 -17 14 2 7 11 -4 32 -9 48 -12z m552 -357 l40 -14 -45 6
c-25 3 -54 9 -65 14 -36 14 25 9 70 -6z m1116 -362 c-12 -20 -14 -14 -5 12 4
9 9 14 11 11 3 -2 0 -13 -6 -23z m-6 -110 c3 -17 22 -56 42 -85 33 -48 33 -51
8 -28 -40 36 -65 96 -63 155 0 29 3 37 5 20 2 -16 6 -44 8 -62z m-137 -236
c56 -44 81 -70 50 -51 -24 15 -138 106 -138 111 0 7 21 -7 88 -60z m242 -77
c-17 -27 -39 -54 -48 -62 -15 -11 -14 -10 1 12 10 14 30 51 45 83 20 43 28 53
30 37 2 -11 -11 -43 -28 -70z m114 -42 c-3 -5 -12 -4 -20 3 -19 16 -18 18 6
12 11 -3 17 -9 14 -15z m-87 -154 c-5 -6 -57 58 -57 70 0 4 14 -9 31 -29 18
-20 29 -38 26 -41z"/>
<path d="M1225 3061 c-3 -5 -1 -12 5 -16 5 -3 10 1 10 9 0 18 -6 21 -15 7z"/>
<path d="M1695 3340 c3 -5 11 -10 16 -10 6 0 7 5 4 10 -3 6 -11 10 -16 10 -6
0 -7 -4 -4 -10z"/>
<path d="M1678 3193 c5 -24 6 -25 12 -8 8 21 4 35 -9 35 -5 0 -6 -12 -3 -27z"/>
<path d="M1661 3184 c0 -11 3 -14 6 -6 3 7 2 16 -1 19 -3 4 -6 -2 -5 -13z"/>
<path d="M1336 3127 c3 -10 9 -15 12 -12 3 3 0 11 -7 18 -10 9 -11 8 -5 -6z"/>
<path d="M2179 2826 c-33 -10 -58 -26 -122 -76 -12 -10 -20 -30 -21 -56 -1
-21 -6 -46 -11 -54 -5 -8 14 10 42 40 35 38 67 61 102 75 28 11 51 24 51 29 0
5 7 14 17 21 17 13 10 36 -10 34 -7 -1 -28 -6 -48 -13z"/>
<path d="M3957 2682 c-34 -34 -45 -52 -37 -57 16 -10 93 67 88 89 -2 13 -14 5
-51 -32z"/>
<path d="M2226 2652 c-4 -13 -32 -28 -87 -47 -44 -15 -78 -29 -76 -31 5 -6
110 26 122 37 15 15 28 10 15 -6 -7 -8 -27 -19 -44 -24 -20 -6 -24 -9 -11 -10
31 -1 84 36 91 64 8 30 -1 45 -10 17z"/>
<path d="M3977 2642 c-16 -17 -24 -32 -19 -36 12 -7 55 39 50 54 -2 6 -16 -2
-31 -18z"/>
<path d="M3991 2611 c-8 -14 -7 -20 4 -25 11 -4 15 2 15 19 0 30 -6 32 -19 6z"/>
<path d="M3886 2611 c-3 -5 1 -11 9 -15 8 -3 15 -1 15 4 0 13 -18 22 -24 11z"/>
<path d="M3925 2600 c-8 -13 -1 -24 14 -19 6 3 7 10 2 18 -6 10 -10 10 -16 1z"/>
<path d="M2185 2555 c-22 -14 -35 -25 -30 -25 12 0 75 38 75 45 0 7 -1 7 -45
-20z"/>
<path d="M3960 2573 c0 -5 11 -13 25 -20 29 -13 33 -6 8 13 -20 15 -33 18 -33
7z"/>
<path d="M3981 2464 c-29 -34 -21 -41 9 -9 13 14 21 27 18 30 -2 3 -15 -7 -27
-21z"/>
<path d="M3653 2389 c-72 -68 -86 -89 -60 -89 21 0 152 139 142 149 -6 6 -37
-16 -82 -60z"/>
<path d="M3687 2363 c-42 -42 -77 -77 -77 -79 0 -2 6 -4 13 -4 17 0 161 146
150 153 -5 3 -43 -28 -86 -70z"/>
<path d="M2530 2410 c0 -5 7 -10 16 -10 8 0 12 5 9 10 -3 6 -10 10 -16 10 -5
0 -9 -4 -9 -10z"/>
<path d="M3727 2348 c-76 -69 -90 -88 -64 -88 17 0 161 146 150 153 -5 3 -43
-26 -86 -65z"/>
<path d="M3850 2411 c0 -9 30 -24 36 -18 2 1 -6 8 -16 15 -11 7 -20 8 -20 3z"/>
<path d="M3910 2395 c-12 -13 -27 -22 -32 -19 -10 6 -158 -134 -158 -150 0 -6
33 22 73 62 40 39 77 72 83 72 6 0 23 14 39 30 16 17 26 30 24 30 -3 0 -16
-11 -29 -25z"/>
<path d="M3756 2321 c-55 -55 -73 -80 -63 -84 9 -3 43 24 91 72 55 55 73 80
63 84 -9 3 -43 -24 -91 -72z"/>
<path d="M3811 2169 c-141 -145 -198 -198 -210 -194 -13 5 -13 4 -4 -6 10 -10
18 -8 38 11 l24 23 11 -27 c11 -31 14 -86 3 -86 -3 0 -15 8 -26 18 -19 16 -20
16 -8 -5 6 -13 20 -27 31 -33 25 -13 50 -62 49 -92 -1 -23 -1 -23 -9 2 -7 22
-8 22 -9 4 -1 -11 -8 -29 -16 -40 -22 -29 -18 -39 6 -13 l20 24 -6 -25 c-5
-19 -4 -21 4 -10 13 19 15 16 36 -60 26 -93 23 -245 -5 -275 -11 -12 -20 -25
-20 -29 0 -5 9 2 19 15 22 28 26 26 36 -18 7 -34 1 -38 -52 -36 -7 1 -13 -9
-13 -20 0 -16 3 -18 12 -9 17 17 58 15 65 -4 7 -18 -15 -36 -35 -29 -8 3 -18
2 -24 -1 -18 -12 14 -23 39 -13 20 7 25 4 38 -27 8 -20 15 -44 15 -53 0 -9 23
-35 50 -59 32 -28 50 -51 50 -66 0 -12 4 -26 8 -31 5 -6 15 -37 22 -70 7 -33
23 -89 36 -125 l23 -65 0 813 c1 446 0 812 -2 812 -2 0 -90 -90 -196 -201z"/>
<path d="M3387 2207 l-149 -142 39 -18 c21 -10 31 -12 22 -4 -15 11 -15 15 5
40 23 28 47 35 77 23 21 -9 47 20 31 36 -9 9 -17 7 -32 -7 -13 -12 -20 -14
-20 -5 0 9 -8 7 -27 -5 l-28 -18 24 27 c18 19 27 23 33 14 6 -10 10 -10 17 2
5 8 8 17 5 21 -2 4 1 11 7 15 8 4 9 3 5 -4 -4 -7 -2 -12 4 -12 7 0 10 6 7 13
-7 18 102 127 121 119 10 -3 13 -1 8 7 -4 6 -2 18 4 26 7 8 9 15 4 15 -5 -1
-76 -65 -157 -143z m-77 -100 c0 -2 -12 -14 -27 -28 l-28 -24 24 28 c23 25 31
32 31 24z"/>
<path d="M3559 2333 c-13 -16 -12 -17 4 -4 9 7 17 15 17 17 0 8 -8 3 -21 -13z"/>
<path d="M3550 2290 c0 -5 14 -17 31 -26 20 -10 30 -11 27 -4 -2 6 -7 11 -12
10 -5 -1 -13 5 -18 14 -10 18 -28 22 -28 6z"/>
<path d="M2015 2278 c13 -22 48 -58 57 -58 5 0 3 10 -4 23 -7 12 -12 27 -13
32 0 6 -11 12 -24 13 -17 3 -21 0 -16 -10z"/>
<path d="M3626 2252 c-3 -6 -1 -14 5 -17 15 -10 25 3 12 16 -7 7 -13 7 -17 1z"/>
<path d="M2571 2224 c0 -11 3 -14 6 -6 3 7 2 16 -1 19 -3 4 -6 -2 -5 -13z"/>
<path d="M3660 2221 c0 -5 9 -11 21 -14 16 -4 18 -3 8 9 -13 16 -29 19 -29 5z"/>
<path d="M2532 2205 c-11 -12 -10 -15 3 -15 8 0 15 7 15 15 0 18 -2 18 -18 0z"/>
<path d="M3650 2135 c-41 -41 -72 -75 -69 -75 2 0 38 34 79 75 41 41 72 75 69
75 -2 0 -38 -34 -79 -75z"/>
<path d="M3425 2160 c3 -5 11 -10 16 -10 6 0 7 5 4 10 -3 6 -11 10 -16 10 -6
0 -7 -4 -4 -10z"/>
<path d="M2544 2145 c-16 -13 -17 -16 -4 -25 11 -7 16 -5 18 5 2 8 8 15 13 15
5 0 9 5 9 10 0 14 -13 12 -36 -5z"/>
<path d="M3460 2140 c0 -5 5 -10 11 -10 5 0 7 5 4 10 -3 6 -8 10 -11 10 -2 0
-4 -4 -4 -10z"/>
<path d="M2575 2119 c-9 -14 -2 -20 14 -10 8 6 9 11 3 15 -6 3 -14 1 -17 -5z"/>
<path d="M3432 2118 c-7 -7 -12 -16 -12 -20 0 -12 28 -10 36 3 10 17 -10 31
-24 17z"/>
<path d="M3492 2118 c5 -15 28 -23 28 -10 0 5 -7 13 -16 16 -10 4 -14 1 -12
-6z"/>
<path d="M3455 2090 c-8 -12 20 -24 35 -15 6 3 8 11 5 16 -8 12 -32 12 -40 -1z"/>
<path d="M3540 2085 c7 -8 17 -15 22 -15 6 0 5 7 -2 15 -7 8 -17 15 -22 15 -6
0 -5 -7 2 -15z"/>
<path d="M3495 2071 c-7 -12 4 -19 38 -25 16 -3 25 -1 22 5 -4 5 -10 7 -15 4
-4 -3 -10 2 -14 10 -6 17 -22 20 -31 6z"/>
<path d="M2560 1980 c0 -5 4 -10 9 -10 6 0 13 5 16 10 3 6 -1 10 -9 10 -9 0
-16 -4 -16 -10z"/>
<path d="M3447 1881 c65 -64 107 -93 97 -66 -5 12 2 15 29 15 20 0 38 3 40 8
3 4 -17 5 -44 3 -41 -2 -54 1 -72 18 -35 35 -94 81 -102 81 -4 0 19 -26 52
-59z"/>
<path d="M3354 1853 c10 -13 19 -36 20 -53 1 -27 2 -28 14 -13 18 26 15 33
-28 68 l-25 20 19 -22z"/>
<path d="M2945 1802 c-16 -16 -36 -36 -44 -45 -25 -32 -5 -17 39 28 49 50 52
60 5 17z"/>
<path d="M3001 1808 c-14 -23 -14 -23 8 -4 22 20 25 26 13 26 -4 0 -13 -10
-21 -22z"/>
<path d="M3421 1804 c-13 -15 -17 -24 -10 -22 12 4 46 48 37 48 -2 0 -15 -12
-27 -26z"/>
<path d="M3021 1796 c-10 -12 -6 -26 10 -26 11 0 19 29 10 35 -5 2 -14 -1 -20
-9z"/>
<path d="M2925 1740 c-27 -28 -45 -50 -39 -50 13 0 99 88 93 95 -3 2 -27 -18
-54 -45z"/>
<path d="M3460 1775 c-11 -13 -10 -14 4 -9 9 3 16 10 16 15 0 13 -6 11 -20 -6z"/>
<path d="M2952 1727 c-43 -43 -53 -67 -29 -67 17 0 99 95 90 104 -11 11 -18 7
-61 -37z"/>
<path d="M3010 1664 c-32 -35 -39 -49 -30 -57 9 -9 22 -1 56 36 24 27 44 53
44 58 0 22 -31 5 -70 -37z"/>
<path d="M2861 1674 c0 -11 3 -14 6 -6 3 7 2 16 -1 19 -3 4 -6 -2 -5 -13z"/>
<path d="M3588 1645 c-45 -44 -68 -56 -68 -35 0 6 5 10 10 10 6 0 10 5 10 10
0 6 -8 5 -20 -2 -12 -8 -18 -19 -14 -30 3 -11 0 -18 -8 -18 -7 0 -2 -7 10 -16
22 -15 24 -14 48 11 13 14 24 32 24 40 0 8 11 22 24 30 20 14 43 45 32 45 -1
0 -23 -20 -48 -45z"/>
<path d="M2880 1655 c0 -8 7 -15 15 -15 9 0 12 6 9 15 -4 8 -10 15 -15 15 -5
0 -9 -7 -9 -15z"/>
<path d="M3657 1640 c-3 -8 -8 -28 -11 -45 -8 -47 -23 -108 -32 -130 -7 -17
-6 -18 8 -7 14 11 17 10 20 -6 2 -16 7 -12 21 16 12 27 13 31 2 18 -14 -19
-15 -18 -15 12 0 17 5 54 11 82 10 49 8 92 -4 60z"/>
<path d="M3714 1633 c4 -11 2 -33 -4 -49 -9 -27 -9 -28 5 -10 18 23 20 62 4
72 -7 4 -9 0 -5 -13z"/>
<path d="M2916 1618 c3 -7 27 -31 55 -52 l49 -40 -32 -35 c-32 -35 -32 -35 7
2 l40 38 -54 50 c-54 48 -75 61 -65 37z"/>
<path d="M2709 1541 c-24 -21 -41 -42 -38 -45 3 -4 26 11 50 33 24 21 41 42
38 45 -3 4 -26 -11 -50 -33z"/>
<path d="M2790 1572 c0 -12 19 -26 26 -19 2 2 -2 10 -11 17 -9 8 -15 8 -15 2z"/>
<path d="M2726 1516 c-39 -34 -46 -44 -35 -53 11 -9 24 -2 61 32 33 32 43 47
34 54 -8 7 -26 -3 -60 -33z"/>
<path d="M2280 1529 c0 -5 11 -9 25 -9 14 0 25 2 25 4 0 2 -11 6 -25 8 -14 3
-25 1 -25 -3z"/>
<path d="M2845 1516 c10 -14 21 -26 26 -26 16 0 9 15 -17 34 l-26 19 17 -27z"/>
<path d="M2208 1513 c12 -2 30 -2 40 0 9 3 -1 5 -23 4 -22 0 -30 -2 -17 -4z"/>
<path d="M2373 1499 c22 -11 37 -23 34 -26 -3 -2 -14 0 -25 6 -37 20 -38 11
-2 -11 19 -12 59 -41 88 -66 28 -24 52 -39 52 -33 0 6 -3 11 -7 11 -13 1 -108
90 -97 90 6 0 29 -16 52 -36 23 -19 42 -31 42 -26 0 19 -140 113 -167 112 -4
-1 9 -10 30 -21z"/>
<path d="M2763 1481 c-24 -21 -43 -41 -43 -45 0 -15 29 -4 51 20 13 14 33 30
44 36 11 6 0 -10 -25 -36 -34 -36 -41 -49 -32 -58 9 -9 22 -2 57 32 l45 44
-22 23 c-12 13 -24 23 -27 23 -3 -1 -25 -18 -48 -39z"/>
<path d="M2281 1506 c2 -2 18 -6 34 -10 22 -5 26 -4 15 4 -14 9 -59 15 -49 6z"/>
<path d="M2144 1489 c-23 -4 -69 -21 -102 -38 -33 -16 -63 -27 -67 -23 -5 4
-5 2 -2 -4 6 -11 -69 -79 -88 -79 -5 0 -10 -7 -10 -15 0 -8 -7 -15 -15 -15 -8
0 -15 -5 -15 -12 0 -6 -23 -42 -51 -80 -28 -37 -61 -83 -73 -101 -12 -18 -26
-30 -31 -27 -5 3 -12 0 -16 -6 -5 -8 -3 -9 6 -4 9 5 10 2 6 -13 -7 -20 -4 -21
81 -20 89 0 161 -13 199 -37 11 -7 42 -15 67 -16 45 -3 48 -1 125 72 43 40
133 125 200 188 l123 114 -28 24 c-53 44 -128 83 -173 88 -25 3 -56 7 -70 9
-14 2 -44 0 -66 -5z"/>
<path d="M2890 1479 c0 -8 9 -20 20 -27 11 -7 20 -8 20 -4 0 5 -9 17 -20 27
-15 14 -20 15 -20 4z"/>
<path d="M2605 1445 c-22 -18 -37 -37 -33 -40 7 -8 88 54 88 67 0 15 -14 8
-55 -27z"/>
<path d="M1932 1446 c-9 -21 -8 -24 7 -23 13 1 16 7 13 24 -5 29 -6 29 -20 -1z"/>
<path d="M2627 1422 c-31 -32 -35 -41 -24 -50 10 -9 22 -3 51 27 21 22 35 44
32 50 -11 17 -20 13 -59 -27z"/>
<path d="M2821 1416 c-54 -55 -37 -76 18 -22 54 53 63 44 11 -11 -25 -26 -36
-40 -25 -32 11 7 30 26 43 42 13 15 29 27 34 27 6 0 3 -10 -8 -22 l-19 -23 23
19 c25 22 28 36 8 36 -8 0 -16 7 -20 15 -8 23 -18 19 -65 -29z"/>
<path d="M2665 1390 c-21 -22 -36 -43 -32 -46 7 -7 87 53 87 66 0 23 -20 16
-55 -20z"/>
<path d="M2547 1393 c-4 -3 -7 -11 -7 -17 0 -6 5 -5 12 2 6 6 9 14 7 17 -3 3
-9 2 -12 -2z"/>
<path d="M2690 1360 c-35 -30 -42 -41 -33 -51 9 -9 21 -4 52 22 39 33 50 52
33 63 -4 2 -27 -13 -52 -34z"/>
<path d="M3671 1372 c-17 -31 -13 -40 5 -14 9 13 14 26 11 29 -3 2 -10 -4 -16
-15z"/>
<path d="M2566 1362 c-3 -6 -1 -14 5 -17 15 -10 25 3 12 16 -7 7 -13 7 -17 1z"/>
<path d="M2290 1175 c-107 -102 -196 -190 -198 -195 -2 -6 -12 -5 -25 2 -19 9
-20 9 -11 -3 24 -30 23 -71 -3 -97 -13 -13 -22 -31 -19 -39 5 -12 11 -11 36 7
39 28 44 38 28 57 -7 9 -12 26 -10 37 4 25 40 58 54 50 6 -4 9 -1 6 7 -6 17
51 65 70 61 9 -2 13 2 9 11 -6 16 48 75 59 65 3 -4 -6 -14 -20 -23 -14 -10
-26 -22 -26 -28 0 -6 14 2 30 18 17 16 28 36 26 44 -3 9 11 28 31 45 29 24 37
27 44 15 22 -36 28 -43 35 -36 4 4 -2 16 -14 27 -12 12 -22 24 -21 28 1 13 79
74 79 63 0 -7 4 -10 10 -6 5 3 6 13 3 22 -5 13 -2 15 11 10 10 -4 15 -3 11 4
-4 5 -1 16 5 24 7 8 8 15 3 15 -5 0 -96 -83 -203 -185z"/>
<path d="M2717 1322 c-31 -32 -35 -41 -24 -50 10 -9 22 -3 51 27 21 22 35 44
32 50 -11 17 -20 13 -59 -27z"/>
<path d="M3411 1346 c12 -10 60 -16 54 -6 -3 5 -18 10 -32 10 -15 0 -24 -2
-22 -4z"/>
<path d="M2595 1330 c-4 -6 -3 -16 3 -22 6 -6 12 -6 17 2 4 6 3 16 -3 22 -6 6
-12 6 -17 -2z"/>
<path d="M3676 1325 c-22 -17 -17 -29 7 -19 16 6 32 34 19 34 -4 0 -16 -7 -26
-15z"/>
<path d="M1449 1313 c-5 -15 8 -43 47 -102 l53 -81 -17 -46 c-13 -36 -27 -52
-61 -72 -34 -20 -40 -27 -27 -32 16 -5 15 -8 -5 -34 -21 -27 -22 -28 -2 -18
11 7 23 23 27 36 3 14 20 35 37 47 25 17 39 20 77 16 31 -4 40 -3 27 3 -11 5
-33 9 -49 9 -23 1 -27 4 -21 19 4 9 10 26 13 37 3 11 12 31 19 45 13 24 11 27
-46 80 -43 40 -61 63 -63 85 -3 26 -4 27 -9 8z"/>
<path d="M2750 1283 c-25 -26 -33 -38 -19 -25 30 26 47 29 28 5 -7 -10 3 -3
21 14 23 22 31 36 24 43 -7 7 -24 -5 -54 -37z m50 23 c0 -2 -8 -10 -17 -17
-16 -13 -17 -12 -4 4 13 16 21 21 21 13z"/>
<path d="M2625 1300 c-4 -6 -2 -17 4 -23 15 -15 25 -2 13 19 -7 12 -11 13 -17
4z"/>
<path d="M2500 1291 c0 -5 5 -13 10 -16 6 -3 10 -2 10 4 0 5 -4 13 -10 16 -5
3 -10 2 -10 -4z"/>
<path d="M3480 1290 c-12 -8 -11 -10 8 -10 12 0 22 5 22 10 0 13 -11 13 -30 0z"/>
<path d="M2415 1260 c-10 -11 -14 -20 -8 -20 5 0 18 9 28 20 10 11 14 20 8 20
-5 0 -18 -9 -28 -20z"/>
<path d="M2442 1247 c-25 -26 -29 -36 -20 -45 9 -9 19 -5 45 20 18 18 33 29
33 25 0 -4 -14 -20 -32 -36 -46 -41 -27 -59 22 -20 l39 32 -22 28 c-12 15 -24
28 -28 28 -3 1 -19 -14 -37 -32z"/>
<path d="M2660 1257 c0 -18 29 -57 42 -57 16 0 7 27 -17 50 -21 19 -25 21 -25
7z"/>
<path d="M2530 1250 c0 -5 5 -10 11 -10 5 0 7 5 4 10 -3 6 -8 10 -11 10 -2 0
-4 -4 -4 -10z"/>
<path d="M3642 1245 c-28 -15 -42 -28 -20 -20 21 8 33 -12 17 -31 -6 -8 -9
-17 -5 -21 8 -8 19 4 33 38 15 34 4 48 -25 34z"/>
<path d="M3530 1224 c-13 -15 -6 -17 24 -5 17 6 17 8 3 14 -8 3 -21 -1 -27 -9z"/>
<path d="M2582 1191 c18 -22 34 -38 36 -36 6 6 -49 75 -60 75 -5 0 6 -18 24
-39z"/>
<path d="M2499 1182 c-25 -22 -30 -32 -22 -45 8 -15 12 -14 38 13 16 16 33 30
39 30 5 0 -5 -15 -23 -34 -24 -24 -31 -38 -25 -49 8 -13 15 -10 47 19 l38 35
-23 29 c-13 16 -26 29 -30 29 -4 1 -22 -12 -39 -27z"/>
<path d="M3696 1153 c0 -27 5 -56 9 -65 12 -29 -1 -21 -24 15 l-21 32 0 -30
c0 -16 5 -37 11 -45 9 -12 10 -11 5 5 -5 16 -2 15 16 -6 13 -14 28 -35 35 -45
11 -18 11 -17 6 4 -3 12 -9 25 -14 28 -5 3 -9 10 -9 16 0 6 12 1 27 -13 l26
-24 -25 35 c-14 19 -29 46 -33 60 -7 22 -6 23 9 11 14 -12 16 -12 10 4 -5 13
-4 16 4 11 7 -4 12 -13 12 -21 0 -7 7 -15 14 -18 11 -4 13 -1 8 12 -7 18 -57
81 -64 81 -2 0 -3 -21 -2 -47z"/>
<path d="M3561 1181 c-1 -7 -7 -11 -16 -7 -9 3 -15 0 -15 -10 0 -8 5 -12 10
-9 6 3 10 0 10 -7 0 -8 5 -6 11 5 6 10 8 23 5 30 -3 8 -5 8 -5 -2z"/>
<path d="M2710 1165 c8 -9 9 -15 2 -15 -6 0 0 -19 13 -42 14 -24 25 -51 25
-60 0 -9 4 -19 10 -23 5 -3 2 16 -6 42 -8 26 -16 57 -18 69 -4 27 -14 44 -28
44 -7 0 -6 -6 2 -15z"/>
<path d="M765 1161 c-2 -5 26 -38 63 -74 115 -111 151 -135 60 -40 -49 50 -88
95 -88 101 0 13 -28 24 -35 13z"/>
<path d="M2415 1160 c-4 -6 -3 -16 3 -22 13 -13 23 4 13 21 -7 10 -10 10 -16
1z"/>
<path d="M2330 1141 c0 -5 5 -13 10 -16 6 -3 10 -2 10 4 0 5 -4 13 -10 16 -5
3 -10 2 -10 -4z"/>
<path d="M2563 1110 c-47 -42 -41 -59 6 -19 38 33 49 49 34 49 -5 0 -23 -14
-40 -30z"/>
<path d="M2440 1118 c0 -18 50 -78 65 -78 9 0 12 -6 8 -17 -5 -14 -3 -15 7 -6
9 9 7 18 -11 42 -12 17 -29 31 -36 31 -7 0 -12 3 -12 8 3 18 -2 32 -11 32 -5
0 -10 -5 -10 -12z"/>
<path d="M2757 1095 c9 -19 18 -33 21 -31 4 5 -26 66 -33 66 -3 0 3 -16 12
-35z"/>
<path d="M2276 1092 c-22 -24 -24 -31 -13 -40 11 -9 20 -5 41 17 16 16 25 34
22 40 -11 17 -20 13 -50 -17z"/>
<path d="M2694 1104 c22 -21 20 -33 -6 -43 -16 -7 -26 -5 -34 4 -8 11 -69 -45
-287 -263 -180 -180 -277 -285 -277 -298 0 -11 -10 -31 -21 -43 -24 -25 -33
-25 -245 1 -50 6 -104 8 -120 4 l-29 -8 35 -18 c53 -26 160 -43 229 -35 53 6
60 5 70 -13 17 -31 13 -77 -7 -102 -24 -29 -103 -41 -165 -25 -35 9 -44 9 -40
0 3 -9 -15 -9 -74 1 -43 8 -98 17 -123 20 -54 7 -121 34 -114 46 3 4 0 8 -5 8
-6 0 -11 6 -11 13 0 8 -8 21 -18 30 -18 16 -18 15 -14 -16 2 -17 11 -40 20
-50 30 -34 10 -32 -83 12 -5 2 -4 -3 2 -11 7 -8 10 -18 7 -21 -4 -4 6 -12 22
-19 29 -11 28 -12 -26 -18 -79 -10 -107 7 -203 124 -21 25 -43 46 -49 46 -6 0
-5 -6 3 -16 7 -9 14 -33 15 -55 2 -32 -1 -39 -16 -39 -10 0 -21 -7 -24 -16 -5
-13 -9 -14 -21 -4 -10 9 -19 9 -27 2 -8 -6 -49 -9 -96 -7 -45 1 -82 -2 -82 -6
0 -5 -9 -9 -21 -9 -12 0 -18 -4 -13 -11 5 -8 -3 -10 -23 -7 l-30 4 -12 -75
c-6 -42 -11 -92 -10 -111 l1 -35 9 30 c5 17 10 54 11 82 1 29 4 57 7 62 12 19
188 16 215 -4 18 -14 18 -15 0 -43 -11 -16 -54 -60 -96 -98 -42 -38 -72 -71
-67 -72 5 -2 41 25 79 61 49 45 81 67 106 71 19 4 43 10 51 13 12 5 15 2 10
-13 -19 -63 -19 -64 -4 -64 8 0 18 6 21 13 4 8 5 7 5 -3 -1 -8 -1 -30 0 -47
l1 -33 209 0 c129 0 212 4 216 10 3 5 15 10 26 10 11 0 17 -4 14 -10 -4 -7 75
-10 229 -10 l235 0 16 29 c8 17 19 33 25 36 5 3 1 -10 -11 -29 -18 -32 -19
-36 -4 -36 9 0 14 4 11 8 -3 5 6 25 19 45 29 42 32 55 8 36 -10 -8 -2 6 18 31
41 51 97 96 219 176 101 67 165 125 191 176 10 21 24 72 30 115 14 95 36 154
96 256 46 77 68 104 38 46 -9 -17 -14 -33 -11 -36 3 -3 8 2 12 11 3 9 11 13
17 9 6 -3 7 -1 3 5 -4 6 0 25 9 41 19 38 19 50 0 25 -14 -18 -14 -17 -5 9 23
64 1 167 -36 167 -14 0 -14 -2 0 -16z"/>
<path d="M2780 1101 c0 -5 5 -13 10 -16 6 -3 10 -2 10 4 0 5 -4 13 -10 16 -5
3 -10 2 -10 -4z"/>
<path d="M2306 1054 c-21 -19 -26 -28 -17 -37 8 -8 19 -4 41 18 16 15 27 32
24 37 -8 13 -17 9 -48 -18z"/>
<path d="M2380 1074 c0 -14 61 -96 68 -90 5 5 -11 31 -47 76 -11 14 -21 20
-21 14z"/>
<path d="M3848 978 c3 -94 0 -110 -28 -188 -28 -77 -44 -122 -69 -202 -5 -16
-8 -28 -6 -28 2 0 19 21 36 47 31 44 44 84 55 163 3 19 10 44 15 55 18 39 27
187 13 223 -7 17 -14 32 -16 32 -2 0 -2 -46 0 -102z"/>
<path d="M1655 1060 c-3 -5 -1 -10 4 -10 6 0 11 5 11 10 0 6 -2 10 -4 10 -3 0
-8 -4 -11 -10z"/>
<path d="M2801 1008 c0 -47 -6 -70 -25 -98 -72 -109 -105 -186 -126 -295 -11
-61 -25 -127 -31 -147 -14 -54 -97 -139 -203 -208 -156 -103 -206 -143 -253
-202 l-44 -58 355 0 354 0 36 41 c38 45 104 174 130 254 36 115 36 288 -1 400
-23 72 -79 181 -129 251 -60 84 -55 91 7 13 130 -163 191 -379 159 -570 -16
-96 -69 -226 -131 -316 -39 -59 -45 -73 -31 -73 40 0 121 123 163 245 43 127
53 212 40 331 -19 178 -72 291 -226 482 -1 1 -11 4 -23 7 -18 3 -20 -2 -21
-57z m97 -42 c73 -99 128 -211 148 -304 14 -71 17 -260 4 -302 -4 -14 -5 25
-2 85 9 195 -48 377 -163 520 -69 85 -69 85 -58 85 5 0 37 -38 71 -84z m113
-734 c-25 -69 -83 -172 -96 -172 -3 0 8 21 24 48 30 47 90 189 92 214 0 8 2 9
5 2 3 -6 -8 -48 -25 -92z m-101 -186 c0 -2 -8 -10 -17 -17 -16 -13 -17 -12 -4
4 13 16 21 21 21 13z"/>
<path d="M2230 1042 c0 -12 19 -26 26 -19 2 2 -2 10 -11 17 -9 8 -15 8 -15 2z"/>
<path d="M2326 1022 c-21 -23 -24 -31 -14 -40 18 -14 81 41 65 57 -16 16 -20
14 -51 -17z"/>
<path d="M3680 1011 c0 -5 5 -13 10 -16 6 -3 10 -2 10 4 0 5 -4 13 -10 16 -5
3 -10 2 -10 -4z"/>
<path d="M2272 980 c12 -16 26 -30 30 -30 5 0 -1 14 -14 30 -12 17 -26 30 -30
30 -5 0 1 -13 14 -30z"/>
<path d="M2356 982 c-22 -24 -24 -31 -13 -40 11 -9 20 -5 41 17 16 16 25 34
22 40 -11 17 -20 13 -50 -17z"/>
<path d="M2140 965 c-26 -27 -31 -38 -22 -47 18 -18 64 29 56 56 -6 18 -5 19
10 7 14 -12 16 -11 16 3 0 26 -24 19 -60 -19z"/>
<path d="M2005 935 c0 -24 3 -41 7 -39 10 7 10 71 1 77 -5 3 -8 -14 -8 -38z"/>
<path d="M2387 942 c-26 -27 -27 -30 -10 -43 9 -8 14 -9 10 -3 -8 14 36 57 48
47 4 -5 6 -2 3 6 -7 25 -23 23 -51 -7z"/>
<path d="M2205 950 c3 -5 11 -10 16 -10 6 0 7 5 4 10 -3 6 -11 10 -16 10 -6 0
-7 -4 -4 -10z"/>
<path d="M2159 916 c-18 -16 -24 -28 -18 -37 6 -11 13 -9 33 11 25 22 35 50
19 50 -5 0 -20 -11 -34 -24z"/>
<path d="M2330 905 c13 -22 24 -41 26 -43 1 -2 4 0 7 5 3 4 -9 24 -25 43 l-31
35 23 -40z"/>
<path d="M2230 921 c0 -11 58 -84 75 -94 8 -4 17 -2 21 4 4 8 3 9 -4 5 -7 -4
-26 14 -48 44 -36 50 -44 58 -44 41z"/>
<path d="M2040 905 c-20 -24 -6 -28 15 -5 10 11 13 20 8 20 -6 0 -16 -7 -23
-15z"/>
<path d="M2175 874 c-11 -18 -14 -29 -7 -36 13 -13 67 35 58 51 -12 19 -33 12
-51 -15z"/>
<path d="M1750 870 c0 -13 1 -13 110 -35 87 -19 144 -44 154 -70 9 -24 26 -17
26 11 0 20 -3 24 -13 16 -9 -8 -18 -3 -32 19 -18 26 -26 29 -72 29 -28 0 -55
5 -58 11 -5 7 5 8 29 4 40 -8 86 0 86 15 0 6 -46 10 -115 10 -72 0 -115 -4
-115 -10z"/>
<path d="M2082 847 c-42 -43 -29 -68 16 -31 31 26 40 48 24 58 -5 3 -23 -9
-40 -27z"/>
<path d="M2203 838 l-21 -23 23 -30 c23 -28 25 -28 43 -12 10 9 22 14 27 10 4
-5 5 -3 2 4 -4 6 -1 13 5 16 9 3 7 7 -5 12 -11 5 -26 1 -40 -11 -20 -17 -20
-17 2 8 38 44 4 68 -36 26z"/>
<path d="M2652 795 c-41 -76 -61 -136 -68 -214 -14 -128 -53 -178 -248 -310
-72 -49 -149 -108 -171 -132 l-40 -43 43 37 c24 21 48 35 54 31 6 -4 8 -3 5 3
-9 14 19 37 34 27 7 -4 9 -3 6 3 -4 6 23 30 61 54 37 24 87 58 111 76 24 18
48 30 54 26 5 -3 7 -2 4 4 -8 13 37 56 48 46 4 -5 5 -3 2 4 -4 6 4 30 17 53
15 26 26 37 29 28 3 -7 3 3 0 23 -7 51 21 188 52 248 14 29 29 50 33 47 4 -2
8 7 8 20 1 13 0 24 -1 24 -2 0 -17 -25 -33 -55z"/>
<path d="M2100 805 c-28 -29 -32 -38 -21 -45 18 -10 83 38 79 59 -5 26 -23 22
-58 -14z"/>
<path d="M3060 839 c0 -4 11 -32 25 -63 14 -31 25 -63 25 -72 0 -8 4 -13 10
-9 5 3 17 -9 26 -27 21 -43 71 -96 109 -115 21 -11 10 3 -35 45 -69 66 -75 88
-13 52 l38 -23 -34 36 c-39 42 -37 62 2 23 15 -14 29 -26 32 -26 11 0 44 -44
45 -57 0 -7 4 -13 8 -13 5 0 14 -10 20 -22 7 -13 23 -41 37 -63 13 -22 24 -50
25 -62 0 -13 5 -23 10 -23 6 0 10 -8 10 -19 0 -10 9 -21 20 -24 26 -7 25 -1
-9 85 -62 156 -115 224 -200 256 -46 18 -72 36 -106 75 -25 28 -45 49 -45 46z"/>
<path d="M3872 789 c-1 -15 -5 -42 -8 -60 -4 -28 -3 -31 6 -16 6 9 9 36 7 60
-2 23 -4 30 -5 16z"/>
<path d="M2135 770 c-17 -18 -25 -35 -21 -45 5 -14 11 -12 41 12 39 31 41 36
22 52 -10 8 -20 4 -42 -19z"/>
<path d="M2160 725 c-27 -28 -30 -35 -16 -35 10 0 31 11 47 24 22 19 26 26 15
35 -9 8 -21 2 -46 -24z"/>
<path d="M1350 730 c-15 -28 -9 -81 11 -93 9 -6 25 -7 35 -3 18 7 17 8 -5 25
-19 15 -23 25 -19 55 4 40 -5 47 -22 16z"/>
<path d="M2030 713 c0 -25 1 -26 20 -8 21 19 18 35 -6 35 -9 0 -14 -10 -14
-27z"/>
<path d="M2037 679 c-36 -30 -40 -31 -115 -26 -42 2 -63 2 -47 0 17 -2 59 -11
95 -19 l64 -15 34 35 c19 18 31 39 28 45 -11 16 -18 14 -59 -20z"/>
<path d="M3441 675 c0 -5 6 -21 14 -35 8 -14 14 -20 14 -15 0 6 -6 21 -14 35
-8 14 -14 21 -14 15z"/>
<path d="M2076 641 c-25 -27 -26 -28 -8 -44 17 -16 20 -15 50 16 l33 34 -25
11 c-20 9 -27 7 -50 -17z"/>
<path d="M1680 651 c0 -8 79 -3 89 5 2 2 -17 4 -42 4 -26 0 -47 -4 -47 -9z"/>
<path d="M1413 614 c-3 -8 -1 -20 6 -27 8 -8 11 -4 11 16 0 30 -7 35 -17 11z"/>
<path d="M3845 585 c-3 -25 -12 -60 -19 -78 -7 -18 -16 -45 -20 -62 -6 -26 -6
-28 7 -15 17 18 36 87 43 153 6 60 -2 61 -11 2z"/>
<path d="M3470 606 c0 -8 42 -76 46 -76 3 0 -5 18 -16 40 -18 35 -30 49 -30
36z"/>
<path d="M3122 484 c0 -79 -6 -143 -17 -188 -19 -75 -70 -191 -109 -249 -31
-46 -33 -57 -5 -31 12 10 23 17 25 14 3 -3 15 11 27 29 12 19 15 31 8 27 -8
-5 -12 -5 -10 0 2 5 13 31 23 57 14 35 22 44 28 35 6 -8 7 -5 3 11 -5 15 -3
21 3 17 14 -8 22 17 15 45 -4 12 -2 20 3 17 5 -4 10 8 10 25 1 18 5 84 9 147
4 70 3 125 -3 140 -7 19 -10 -6 -10 -96z m-96 -436 c-18 -26 -22 -17 -5 14 6
11 13 17 16 15 3 -3 -2 -16 -11 -29z"/>
<path d="M3141 594 c9 -25 211 -194 232 -194 2 0 2 11 0 24 -4 17 -17 29 -49
41 -24 9 -68 38 -97 64 -70 62 -91 78 -86 65z"/>
<path d="M846 566 c-8 -33 8 -50 33 -36 11 5 27 -1 51 -21 41 -35 60 -37 53
-8 -6 20 -77 59 -108 59 -7 0 -15 8 -17 18 -3 12 -6 8 -12 -12z"/>
<path d="M1911 554 c0 -11 3 -14 6 -6 3 7 2 16 -1 19 -3 4 -6 -2 -5 -13z"/>
<path d="M736 516 c-9 -19 -16 -38 -16 -44 0 -5 -7 -15 -15 -22 -8 -7 -15 -27
-15 -45 0 -18 -11 -63 -25 -99 -22 -57 -25 -83 -25 -186 l0 -120 24 0 24 0 -1
152 c-2 143 0 159 26 238 48 145 58 198 23 126z"/>
<path d="M831 504 c0 -11 3 -14 6 -6 3 7 2 16 -1 19 -3 4 -6 -2 -5 -13z"/>
<path d="M3151 464 c0 -34 -3 -77 -6 -95 -3 -19 -3 -29 0 -22 4 7 32 -1 88
-27 149 -70 223 -63 80 7 -159 78 -153 74 -153 105 l0 28 51 -26 c29 -14 78
-43 109 -65 32 -21 60 -39 64 -39 14 0 5 31 -11 37 -53 18 -212 120 -216 138
-2 11 -5 -8 -6 -41z"/>
<path d="M1270 490 c0 -16 34 -29 83 -32 37 -2 47 -7 47 -20 0 -21 49 -25 68
-6 16 16 15 29 -2 22 -8 -3 -25 1 -38 9 -13 9 -50 20 -82 26 -73 13 -76 13
-76 1z"/>
<path d="M3699 435 c-1 -22 -3 -32 -6 -23 -4 16 -6 16 -20 3 -18 -19 -16 -21
17 -30 24 -6 26 -3 28 27 1 18 -3 40 -8 48 -7 11 -10 5 -11 -25z"/>
<path d="M293 428 c-23 -27 -74 -152 -68 -166 3 -8 -4 -25 -16 -38 -14 -15
-23 -43 -29 -86 -4 -34 -11 -80 -15 -100 l-7 -38 83 1 c67 1 78 3 54 10 -16 5
-44 6 -61 3 -27 -5 -32 -2 -38 19 -3 14 1 41 9 61 8 19 15 48 15 64 0 15 7 37
15 48 8 10 15 26 15 34 0 9 8 32 18 52 37 72 55 173 25 136z"/>
<path d="M806 425 c-3 -9 -6 -31 -5 -48 1 -28 2 -26 10 12 9 46 6 65 -5 36z"/>
<path d="M40 380 c-24 -22 -42 -41 -39 -44 3 -3 25 15 49 39 54 55 50 57 -10
5z"/>
<path d="M3614 385 c35 -35 56 -44 56 -25 0 9 -72 60 -85 60 -3 0 10 -16 29
-35z"/>
<path d="M72 317 c-50 -50 -72 -80 -72 -97 0 -21 6 -16 36 30 20 30 55 74 77
98 23 23 39 42 36 42 -2 0 -37 -33 -77 -73z"/>
<path d="M3403 348 c-2 -5 10 -22 28 -38 l32 -30 -7 31 c-3 17 -6 35 -6 40 0
10 -40 7 -47 -3z"/>
<path d="M3196 312 c26 -24 124 -81 164 -96 25 -10 51 -23 59 -29 12 -9 13 -9
7 1 -4 7 -28 23 -54 36 -26 13 -74 40 -106 60 -55 33 -94 49 -70 28z"/>
<path d="M3131 294 c0 -11 3 -14 6 -6 3 7 2 16 -1 19 -3 4 -6 -2 -5 -13z"/>
<path d="M3397 266 c-3 -8 9 -24 31 -40 20 -14 39 -21 40 -16 6 18 -5 34 -36
52 -25 15 -31 15 -35 4z"/>
<path d="M3360 197 c0 -3 15 -14 33 -26 17 -11 42 -28 55 -37 21 -16 22 -16
22 7 0 19 -2 21 -10 9 -9 -14 -14 -7 -11 13 1 5 -3 6 -8 3 -5 -4 -26 3 -45 15
-20 11 -36 19 -36 16z"/>
<path d="M3482 164 c-1 -22 -7 -66 -13 -98 -6 -32 -8 -60 -6 -63 10 -9 28 107
24 154 -3 47 -3 47 -5 7z"/>
<path d="M424 175 c3 -9 -3 -30 -14 -48 -11 -17 -20 -40 -20 -49 0 -12 -8 -18
-25 -18 -25 0 -31 -13 -19 -44 5 -12 20 -16 60 -16 l54 0 0 69 c0 74 -12 121
-31 121 -6 0 -9 -7 -5 -15z"/>
<path d="M3779 168 c-12 -23 -12 -23 10 -4 23 21 26 26 11 26 -5 0 -15 -10
-21 -22z"/>
<path d="M3801 154 c-11 -14 -22 -30 -25 -37 -3 -9 -7 -8 -15 3 -8 12 -11 7
-11 -21 0 -43 20 -56 44 -30 20 22 21 38 2 22 -8 -7 -17 -8 -20 -3 -3 4 3 14
14 22 10 7 16 20 12 28 -3 10 -1 13 7 8 12 -8 41 10 41 25 0 18 -29 8 -49 -17z"/>
<path d="M3320 168 c12 -11 120 -68 120 -63 0 8 -74 53 -100 60 -14 4 -23 5
-20 3z"/>
<path d="M3076 145 c-9 -26 -7 -32 5 -12 6 10 9 21 6 23 -2 3 -7 -2 -11 -11z"/>
<path d="M78 106 c-10 -20 -18 -47 -18 -59 0 -13 -5 -28 -12 -35 -9 -9 -6 -12
14 -12 24 0 27 5 33 43 4 24 5 56 3 72 l-3 28 -17 -37z"/>
<path d="M3810 52 c-24 -25 -35 -30 -41 -20 -6 9 -10 8 -15 -5 -9 -25 2 -32
29 -18 43 24 70 48 65 62 -3 10 -14 4 -38 -19z"/>
<path d="M740 28 c0 -16 5 -28 10 -28 13 0 13 20 0 40 -8 12 -10 9 -10 -12z"/>
</g>
</svg>
