<?xml version="1.0" standalone="no"?>
<!DOCTYPE svg PUBLIC "-//W3C//DTD SVG 20010904//EN"
 "http://www.w3.org/TR/2001/REC-SVG-20010904/DTD/svg10.dtd">
<svg version="1.0" xmlns="http://www.w3.org/2000/svg"
 width="256.000000pt" height="256.000000pt" viewBox="0 0 256.000000 256.000000"
 preserveAspectRatio="xMidYMid meet">

<g transform="translate(0.000000,256.000000) scale(0.100000,-0.100000)"
fill="#000000" stroke="none">
<path d="M265 2551 c-11 -5 -31 -21 -45 -36 l-25 -27 0 -1209 0 -1209 33 -32
32 -33 1020 0 1020 0 32 33 33 32 0 1210 0 1210 -33 32 -32 33 -1008 2 c-554
1 -1016 -2 -1027 -6z m1769 -62 l26 -20 0 -960 0 -959 -190 0 c-300 0 -293 7
-300 -284 l-5 -211 -242 -3 -243 -2 0 1230 0 1230 464 0 c454 0 464 0 490 -21z
m149 -10 c16 -20 17 -92 17 -1193 0 -924 -3 -1176 -13 -1196 l-13 -25 -254 -3
-255 -2 220 220 220 220 0 1006 0 1006 30 -6 c17 -3 38 -16 48 -27z m109 4
c17 -15 18 -66 18 -1201 0 -1089 -1 -1187 -17 -1204 -9 -10 -23 -18 -32 -18
-15 0 -16 110 -16 1220 0 1307 -2 1248 47 1203z m-1418 -119 c3 -9 6 -121 6
-250 l0 -234 -61 45 c-34 25 -68 45 -76 45 -11 0 -8 8 11 30 95 114 18 284
-129 284 -149 0 -226 -168 -130 -282 l25 -30 -24 -6 c-13 -3 -47 -24 -75 -46
l-51 -40 0 243 c0 134 3 247 7 250 3 4 115 7 249 7 211 0 243 -2 248 -16z m-3
-1284 c13 -8 19 -21 19 -46 l0 -35 -122 3 -123 3 2 30 c1 16 10 36 20 42 21
16 176 18 204 3z m4 -190 l0 -55 -250 0 -250 0 -3 44 c-6 76 -21 72 255 69
l248 -3 0 -55z m15 -157 l0 -48 -125 3 -125 3 0 39 0 39 118 4 c64 1 120 4
125 5 4 1 7 -19 7 -45z m-15 -158 l0 -50 -250 0 -250 0 -3 53 -3 52 253 -2
253 -3 0 -50z m945 -280 c-107 -107 -196 -195 -197 -195 -2 0 -3 79 -3 175 0
231 -16 215 217 215 l178 0 -195 -195z m-930 128 l0 -48 -80 3 c-75 3 -81 2
-106 -23 -24 -24 -26 -31 -22 -99 3 -59 1 -72 -10 -68 -24 9 -32 51 -32 162
l0 109 123 4 c67 1 123 4 125 5 1 1 2 -19 2 -45z m-380 -158 l0 -55 -70 0 -70
0 0 55 0 55 70 0 70 0 0 -55z m365 0 l0 -50 -70 0 -70 0 -3 39 c-5 63 -1 67
75 64 l68 -3 0 -50z"/>
<path d="M1299 2367 c-53 -35 -79 -82 -79 -140 0 -115 101 -196 209 -167 48
13 101 55 101 80 0 31 -20 34 -49 6 -14 -14 -41 -31 -58 -37 -68 -23 -153 37
-153 107 0 107 111 161 194 95 53 -42 87 -25 51 25 -38 55 -155 72 -216 31z"/>
<path d="M1545 2250 c-7 -11 80 -200 92 -200 18 0 31 18 66 94 42 89 46 116
18 116 -14 0 -27 -16 -45 -56 -14 -30 -29 -53 -34 -50 -4 2 -19 27 -32 55 -22
49 -50 66 -65 41z"/>
<path d="M1222 1868 l3 -23 335 0 335 0 3 23 3 22 -341 0 -341 0 3 -22z"/>
<path d="M1222 1738 l3 -23 335 0 335 0 3 23 3 22 -341 0 -341 0 3 -22z"/>
<path d="M1222 1608 l3 -23 335 0 335 0 3 23 3 22 -341 0 -341 0 3 -22z"/>
<path d="M1222 1478 c3 -23 6 -23 133 -23 127 0 130 0 133 23 3 22 3 22 -133
22 -136 0 -136 0 -133 -22z"/>
<path d="M1592 1478 c3 -20 9 -23 53 -23 44 0 50 3 53 23 3 21 0 22 -53 22
-53 0 -56 -1 -53 -22z"/>
<path d="M1227 1224 c-4 -4 -7 -16 -7 -26 0 -17 7 -19 48 -16 39 3 47 6 47 23
0 16 -8 21 -40 23 -23 2 -44 0 -48 -4z"/>
<path d="M1427 1224 c-4 -4 -7 -16 -7 -26 0 -17 14 -18 241 -18 l240 0 -3 23
-3 22 -231 3 c-127 1 -233 -1 -237 -4z"/>
<path d="M1224 1035 c-10 -25 9 -37 52 -33 31 2 39 7 39 23 0 16 -8 21 -43 23
-32 2 -44 -1 -48 -13z"/>
<path d="M1422 1028 l3 -23 235 0 235 0 3 23 3 22 -241 0 -241 0 3 -22z"/>
<path d="M1222 848 c2 -18 10 -24 38 -26 42 -3 65 10 57 32 -5 11 -19 16 -52
16 -42 0 -46 -2 -43 -22z"/>
<path d="M1422 848 l3 -23 235 0 235 0 3 23 3 22 -241 0 -241 0 3 -22z"/>
<path d="M1227 693 c-16 -16 -6 -43 19 -49 48 -12 102 33 58 50 -21 8 -69 8
-77 -1z"/>
<path d="M1427 694 c-13 -13 -7 -42 9 -48 24 -9 437 -7 452 3 8 5 12 17 10 27
-3 18 -17 19 -234 22 -127 1 -233 -1 -237 -4z"/>
<path d="M1223 415 c-11 -29 12 -36 113 -33 91 3 99 5 99 23 0 19 -8 20 -103
23 -86 2 -103 0 -109 -13z"/>
<path d="M1222 278 c3 -22 8 -23 98 -26 99 -2 127 5 117 32 -5 13 -24 16 -112
16 -105 0 -106 0 -103 -22z"/>
<path d="M1227 174 c-4 -4 -7 -16 -7 -26 0 -17 8 -18 108 -16 99 3 107 4 107
23 0 18 -8 20 -101 23 -55 1 -103 0 -107 -4z"/>
</g>
</svg>
